<svg width="500" height="520" viewBox="0 0 500 520" fill="none" xmlns="http://www.w3.org/2000/svg">
<path d="M93.455 4.73757C40.8384 7.31517 0 50.9567 0 103.636V416.349C0 469.035 40.847 512.678 93.47 515.251C142.842 517.665 202.809 520 250 520C297.191 520 357.158 517.665 406.53 515.251C422.236 514.483 436.892 510.057 449.727 502.824C420.7 471.676 371.621 424.982 338.336 416.681C312.572 410.257 294.477 415.558 277.003 420.678C266.38 423.79 255.987 426.835 244.24 427.138C218.004 427.814 193.162 421.736 171.383 410.485C167.101 408.273 169.218 402.055 174.036 402.169C213.385 403.096 251.186 391.05 282.254 369.177C283.739 368.132 285.696 368.023 287.269 368.932L310.692 382.459C312.887 383.728 315.695 382.976 316.964 380.78L320.982 373.822C322.25 371.627 321.498 368.819 319.302 367.55L268.916 338.449C266.72 337.181 263.912 337.933 262.644 340.129L258.625 347.086C257.357 349.282 258.109 352.09 260.305 353.358L261.768 354.203C264.724 355.91 264.84 360.121 261.909 361.87C226.333 383.092 182.725 390.895 139.304 380.286C135.994 379.478 132.731 378.573 129.52 377.577C128.74 377.335 128.041 376.884 127.5 376.272C104.899 350.693 90.8272 317.326 89.8788 280.534C89.8548 279.601 90.8348 278.988 91.6685 279.407L185.354 326.495C257.268 357.032 305.109 218.116 253.011 191.888L171.275 150.806C168.031 149.175 167.891 144.63 171.113 142.958C190.731 132.779 212.904 126.78 236.483 126.173C269.642 125.318 300.574 135.253 325.912 152.783C326.581 153.246 327.11 153.883 327.443 154.626C341.787 186.643 345.983 223.497 337.011 260.218C333.738 273.618 328.9 286.225 322.739 297.893C321.533 300.177 318.651 300.931 316.438 299.6L298.43 288.776C296.257 287.47 293.436 288.173 292.13 290.346L287.991 297.232C286.684 299.406 287.387 302.226 289.56 303.533L339.431 333.509C341.605 334.816 344.425 334.113 345.732 331.94L349.871 325.053C351.177 322.88 350.474 320.059 348.301 318.753L339.085 313.213C336.948 311.929 336.232 309.177 337.411 306.98C344.483 293.796 350.021 279.512 353.736 264.304C359.371 241.242 360.306 218.131 357.155 195.982C356.476 191.211 362.405 188.377 365.107 192.368C380.68 215.369 390.075 242.947 390.844 272.776C390.998 278.757 390.387 283.274 389.794 287.651C388.358 298.26 387.032 308.048 396.988 335.863C408.717 368.632 453.275 403.509 497.837 437.117C499.255 430.411 500 423.462 500 416.349V103.666C500 50.9743 459.144 7.32811 406.515 4.76056C356.877 2.33896 296.495 -0.00757781 249 1.83929e-05C202.112 0.00751767 142.561 2.33193 93.455 4.73757Z" fill="#E9AC57"/>
<path d="M331.787 355.511L335.819 348.562C337.092 346.369 336.346 343.559 334.153 342.287L283.826 313.083C281.632 311.81 278.823 312.556 277.55 314.749L273.518 321.699C272.245 323.892 272.991 326.701 275.184 327.974L325.511 357.178C327.705 358.451 330.514 357.704 331.787 355.511Z" fill="#E9AC57"/>
</svg>
